<svg xmlns="http://www.w3.org/2000/svg" xmlns:xlink="http://www.w3.org/1999/xlink" contentStyleType="text/css" data-diagram-type="ACTIVITY" height="2676px" preserveAspectRatio="none" style="width:918px;height:2676px;background:#FFFFFF;" version="1.1" viewBox="0 0 918 2676" width="918px" zoomAndPan="magnify"><?plantuml 1.2026.6?><defs/><g><g class="title" data-source-line="14"><text fill="#000000" font-family="Sans" font-size="18" font-weight="700" lengthAdjust="spacing" textLength="546.75" x="185.108" y="36.708">WF-2 &#8212; Lu&#7891;ng ph&#225;t hi&#7879;n &#273;&#259;ng nh&#7853;p b&#7845;t th&#432;&#7901;ng (v3.3)</text></g><rect fill="#FFFFCC" height="81.5625" rx="2.5" ry="2.5" style="stroke:#FFDD88;stroke-width:3;" width="887.9661" x="13" y="54.9531"/><text fill="#000000" font-family="monospace" font-size="10" lengthAdjust="spacing" textLength="535.8252" x="20" y="65.5938">This&#160;syntax&#160;is&#160;deprecated,&#160;you&#160;must&#160;add&#160;&lt;&lt;#FFE8E8&gt;&gt;&#160;at&#160;the&#160;end&#160;of&#160;the&#160;line,&#160;after&#160;the&#160;';'</text><text fill="#000000" font-family="monospace" font-size="10" lengthAdjust="spacing" textLength="535.8252" x="20" y="87.2344">This&#160;syntax&#160;is&#160;deprecated,&#160;you&#160;must&#160;add&#160;&lt;&lt;#E8F5E9&gt;&gt;&#160;at&#160;the&#160;end&#160;of&#160;the&#160;line,&#160;after&#160;the&#160;';'</text><text fill="#000000" font-family="monospace" font-size="10" lengthAdjust="spacing" textLength="535.8252" x="20" y="108.875">This&#160;syntax&#160;is&#160;deprecated,&#160;you&#160;must&#160;add&#160;&lt;&lt;#E1D5E7&gt;&gt;&#160;at&#160;the&#160;end&#160;of&#160;the&#160;line,&#160;after&#160;the&#160;';'</text><text fill="#000000" font-family="monospace" font-size="10" lengthAdjust="spacing" textLength="535.8252" x="20" y="130.5156">This&#160;syntax&#160;is&#160;deprecated,&#160;you&#160;must&#160;add&#160;&lt;&lt;#FFF4E6&gt;&gt;&#160;at&#160;the&#160;end&#160;of&#160;the&#160;line,&#160;after&#160;the&#160;';'</text><ellipse cx="492.3411" cy="153.5156" fill="#222222" rx="10" ry="10" style="stroke:#222222;stroke-width:1;"/><rect fill="none" height="298.6719" style="stroke:#000000;stroke-width:1.5;" width="437.6221" x="385.7688" y="173.5156"/><path d="M517.052,173.5156 L517.052,182.8125 L507.052,192.8125 L385.7688,192.8125" fill="none" style="stroke:#000000;stroke-width:1.5;"/><text fill="#000000" font-family="Sans" font-size="14" lengthAdjust="spacing" textLength="121.2832" x="388.7688" y="187.5107">CORE APP (8000)</text><rect fill="#F1F1F1" height="33.9688" rx="12.5" ry="12.5" style="stroke:#495057;stroke-width:0.5;" width="140.5039" x="422.0891" y="209.8125"/><text fill="#000000" font-family="Sans" font-size="12" lengthAdjust="spacing" textLength="120.5039" x="432.0891" y="230.9512">X&#225;c th&#7921;c &#273;&#259;ng nh&#7853;p</text><rect fill="#F1F1F1" height="47.9375" rx="12.5" ry="12.5" style="stroke:#495057;stroke-width:0.5;" width="149.1758" x="417.7532" y="263.7813"/><text fill="#000000" font-family="Sans" font-size="12" lengthAdjust="spacing" textLength="129.1758" x="427.7532" y="284.9199">Ghi phi&#234;n ng&#432;&#7901;i d&#249;ng</text><text fill="#000000" font-family="Sans" font-size="12" lengthAdjust="spacing" textLength="71.4316" x="427.7532" y="298.8887">v&#224;o core-db</text><path d="M597.886,321.7188 L597.886,352.9844 L577.886,356.9844 L597.886,360.9844 L597.886,392.25 A0,0 0 0 0 597.886,392.25 L813.3909,392.25 A0,0 0 0 0 813.3909,392.25 L813.3909,331.7188 L803.3909,321.7188 L597.886,321.7188 A0,0 0 0 0 597.886,321.7188" fill="#FEFFDD" style="stroke:#181818;stroke-width:0.5;"/><path d="M803.3909,321.7188 L803.3909,331.7188 L813.3909,331.7188 L803.3909,321.7188" fill="#FEFFDD" style="stroke:#181818;stroke-width:0.5;"/><text fill="#000000" font-family="Sans" font-size="13" lengthAdjust="spacing" textLength="157.0791" x="603.886" y="338.7856">Ghi phi&#234;n v&#224; ghi s&#7921; ki&#7879;n</text><text fill="#000000" font-family="Sans" font-size="13" lengthAdjust="spacing" textLength="194.5049" x="603.886" y="353.9185">trong C&#217;NG m&#7897;t l&#7847;n giao d&#7883;ch</text><text fill="#000000" font-family="Sans" font-size="13" lengthAdjust="spacing" textLength="135.0146" x="603.886" y="369.0513">--&gt; kh&#244;ng th&#7875; x&#7843;y ra</text><text fill="#000000" font-family="Sans" font-size="13" lengthAdjust="spacing" textLength="172.8086" x="603.886" y="384.1841">"c&#243; phi&#234;n m&#224; m&#7845;t s&#7921; ki&#7879;n"</text><rect fill="#F1F1F1" height="47.9375" rx="12.5" ry="12.5" style="stroke:#495057;stroke-width:0.5;" width="171.0898" x="406.7961" y="333.0156"/><text fill="#000000" font-family="Sans" font-size="12" lengthAdjust="spacing" textLength="151.0898" x="416.7961" y="354.1543">GHI S&#7920; KI&#7878;N v&#224;o h&#7897;p th&#432;</text><text fill="#000000" font-family="Sans" font-size="12" lengthAdjust="spacing" textLength="131.5137" x="416.7961" y="368.123">(b&#7843;ng outbox_events)</text><rect fill="#F1F1F1" height="47.9375" rx="12.5" ry="12.5" style="stroke:#495057;stroke-width:0.5;" width="193.1445" x="395.7688" y="412.25"/><text fill="#000000" font-family="Sans" font-size="12" lengthAdjust="spacing" textLength="106.5234" x="405.7688" y="433.3887">TR&#7842; TOKEN NGAY</text><text fill="#000000" font-family="Sans" font-size="12" lengthAdjust="spacing" textLength="173.1445" x="405.7688" y="447.3574">(ng&#432;&#7901;i d&#249;ng kh&#244;ng ph&#7843;i ch&#7901;)</text><rect fill="none" height="164.1719" style="stroke:#000000;stroke-width:1.5;" width="212.5176" x="386.0823" y="482.1875"/><path d="M517.5295,482.1875 L517.5295,491.4844 L507.5295,501.4844 L386.0823,501.4844" fill="none" style="stroke:#000000;stroke-width:1.5;"/><text fill="#000000" font-family="Sans" font-size="14" lengthAdjust="spacing" textLength="121.4473" x="389.0823" y="496.1826">B&#7896; GOM S&#7920; KI&#7878;N</text><rect fill="#F1F1F1" height="47.9375" rx="12.5" ry="12.5" style="stroke:#495057;stroke-width:0.5;" width="160.6074" x="412.0374" y="518.4844"/><text fill="#000000" font-family="Sans" font-size="12" lengthAdjust="spacing" textLength="132.8379" x="422.0374" y="539.623">&#272;&#7885;c s&#7921; ki&#7879;n tr&#7841;ng th&#225;i</text><text fill="#000000" font-family="Sans" font-size="12" lengthAdjust="spacing" textLength="140.6074" x="422.0374" y="553.5918">"ch&#7901; g&#7917;i" trong core-db</text><rect fill="#F1F1F1" height="47.9375" rx="12.5" ry="12.5" style="stroke:#495057;stroke-width:0.5;" width="192.5176" x="396.0823" y="586.4219"/><text fill="#000000" font-family="Sans" font-size="12" lengthAdjust="spacing" textLength="125.6719" x="406.0823" y="607.5605">&#272;&#225;nh d&#7845;u "&#273;ang g&#7917;i"</text><text fill="#000000" font-family="Sans" font-size="12" lengthAdjust="spacing" textLength="172.5176" x="406.0823" y="621.5293">(tr&#225;nh 2 b&#7897; gom tr&#249;ng nhau)</text><rect fill="none" height="296.1094" style="stroke:#000000;stroke-width:1.5;" width="630.3813" x="174.7231" y="656.3594"/><path d="M374.7622,656.3594 L374.7622,665.6563 L364.7622,675.6563 L174.7231,675.6563" fill="none" style="stroke:#000000;stroke-width:1.5;"/><text fill="#000000" font-family="Sans" font-size="14" lengthAdjust="spacing" textLength="190.0391" x="177.7231" y="670.3545">DETECTION ENGINE (8001)</text><rect fill="#F1F1F1" height="47.9375" rx="12.5" ry="12.5" style="stroke:#495057;stroke-width:0.5;" width="166.3906" x="409.1458" y="692.6563"/><text fill="#000000" font-family="Sans" font-size="12" lengthAdjust="spacing" textLength="146.3906" x="419.1458" y="713.7949">POST s&#7921; ki&#7879;n &#273;&#259;ng nh&#7853;p</text><text fill="#000000" font-family="Sans" font-size="12" lengthAdjust="spacing" textLength="109.3184" x="419.1458" y="727.7637">(k&#232;m kho&#225; n&#7897;i b&#7897;)</text><polygon fill="#F1F1F1" points="440.9451,760.5938,543.7371,760.5938,555.7371,772.5938,543.7371,784.5938,440.9451,784.5938,428.9451,772.5938,440.9451,760.5938" style="stroke:#495057;stroke-width:0.5;stroke-linejoin:miter;stroke-miterlimit:10;"/><text fill="#000000" font-family="Sans" font-size="11" lengthAdjust="spacing" textLength="102.792" x="440.9451" y="776.4019">S&#7921; ki&#7879;n &#273;&#227; t&#7891;n t&#7841;i?</text><text fill="#000000" font-family="Sans" font-size="11" lengthAdjust="spacing" textLength="32.2158" x="396.7292" y="769.9995">C&#243; r&#7891;i</text><text fill="#000000" font-family="Sans" font-size="11" lengthAdjust="spacing" textLength="19.2769" x="555.7371" y="769.9995">M&#7899;i</text><path d="M392.1353,797.8477 L392.1353,821.5469 L372.1353,825.5469 L392.1353,829.5469 L392.1353,853.2461 A0,0 0 0 0 392.1353,853.2461 L597.4014,853.2461 A0,0 0 0 0 597.4014,853.2461 L597.4014,807.8477 L587.4014,797.8477 L392.1353,797.8477 A0,0 0 0 0 392.1353,797.8477" fill="#FEFFDD" style="stroke:#181818;stroke-width:0.5;"/><path d="M587.4014,797.8477 L587.4014,807.8477 L597.4014,807.8477 L587.4014,797.8477" fill="#FEFFDD" style="stroke:#181818;stroke-width:0.5;"/><text fill="#000000" font-family="Sans" font-size="13" lengthAdjust="spacing" textLength="168.9111" x="398.1353" y="814.9146">event_id l&#224; kho&#225; duy nh&#7845;t</text><text fill="#000000" font-family="Sans" font-size="13" lengthAdjust="spacing" textLength="156.5459" x="398.1353" y="830.0474">--&gt; g&#7917;i l&#7841;i bao nhi&#234;u l&#7847;n</text><text fill="#000000" font-family="Sans" font-size="13" lengthAdjust="spacing" textLength="184.2661" x="398.1353" y="845.1802">c&#361;ng ch&#7881; c&#243; 1 l&#7847;n &#273;&#259;ng nh&#7853;p</text><rect fill="#F1F1F1" height="61.9063" rx="12.5" ry="12.5" style="stroke:#495057;stroke-width:0.5;" width="177.4121" x="194.7231" y="794.5938"/><text fill="#000000" font-family="Sans" font-size="12" lengthAdjust="spacing" textLength="100.7871" x="204.7231" y="815.7324">Tr&#7843; 202 &#272;&#227; nh&#7853;n</text><text fill="#000000" font-family="Sans" font-size="12" lengthAdjust="spacing" textLength="157.4121" x="204.7231" y="829.7012">(k&#232;m id l&#7847;n &#273;&#259;ng nh&#7853;p c&#361;,</text><text fill="#000000" font-family="Sans" font-size="12" lengthAdjust="spacing" textLength="139.957" x="204.7231" y="843.6699">kh&#244;ng t&#7841;o b&#7843;n ghi m&#7899;i)</text><rect fill="#F1F1F1" height="47.9375" rx="12.5" ry="12.5" style="stroke:#495057;stroke-width:0.5;" width="167.7031" x="617.4014" y="794.5938"/><text fill="#000000" font-family="Sans" font-size="12" lengthAdjust="spacing" textLength="147.7031" x="627.4014" y="815.7324">Ghi b&#7843;ng login_attempts</text><text fill="#000000" font-family="Sans" font-size="12" lengthAdjust="spacing" textLength="140.3906" x="627.4014" y="829.7012">(tr&#7841;ng th&#225;i = ch&#7901; x&#7917; l&#253;)</text><rect fill="#F1F1F1" height="33.9688" rx="12.5" ry="12.5" style="stroke:#495057;stroke-width:0.5;" width="120.7871" x="640.8594" y="876.5"/><text fill="#000000" font-family="Sans" font-size="12" lengthAdjust="spacing" textLength="100.7871" x="650.8594" y="897.6387">Tr&#7843; 202 &#272;&#227; nh&#7853;n</text><polygon fill="#F1F1F1" points="492.3411,916.4688,504.3411,928.4688,492.3411,940.4688,480.3411,928.4688,492.3411,916.4688" style="stroke:#495057;stroke-width:0.5;stroke-linejoin:miter;stroke-miterlimit:10;"/><rect fill="none" height="96.2344" style="stroke:#000000;stroke-width:1.5;" width="217.0176" x="383.8323" y="962.4688"/><path d="M515.2795,962.4688 L515.2795,971.7656 L505.2795,981.7656 L383.8323,981.7656" fill="none" style="stroke:#000000;stroke-width:1.5;"/><text fill="#000000" font-family="Sans" font-size="14" lengthAdjust="spacing" textLength="121.4473" x="386.8323" y="976.4639">B&#7896; GOM S&#7920; KI&#7878;N</text><rect fill="#F1F1F1" height="47.9375" rx="12.5" ry="12.5" style="stroke:#495057;stroke-width:0.5;" width="197.0176" x="393.8323" y="998.7656"/><text fill="#000000" font-family="Sans" font-size="12" lengthAdjust="spacing" textLength="110.4492" x="403.8323" y="1019.9043">&#272;&#225;nh d&#7845;u "&#273;&#227; g&#7917;i"</text><text fill="#000000" font-family="Sans" font-size="12" lengthAdjust="spacing" textLength="177.0176" x="403.8323" y="1033.873">(n&#7871;u l&#7895;i th&#236; gi&#7919; l&#7841;i &#273;&#7875; th&#7917; sau)</text><rect fill="none" height="954.8281" style="stroke:#000000;stroke-width:1.5;" width="657.3564" x="241.6096" y="1068.7031"/><path d="M396.9622,1068.7031 L396.9622,1078 L386.9622,1088 L241.6096,1088" fill="none" style="stroke:#000000;stroke-width:1.5;"/><text fill="#000000" font-family="Sans" font-size="14" lengthAdjust="spacing" textLength="145.3525" x="244.6096" y="1082.6982">M&#193;Y PH&#194;N T&#205;CH N&#7872;N</text><rect fill="#F1F1F1" height="47.9375" rx="12.5" ry="12.5" style="stroke:#495057;stroke-width:0.5;" width="163.1152" x="410.7834" y="1105"/><text fill="#000000" font-family="Sans" font-size="12" lengthAdjust="spacing" textLength="143.1152" x="420.7834" y="1126.1387">Nh&#7863;t c&#225;c l&#7847;n &#273;&#259;ng nh&#7853;p</text><text fill="#000000" font-family="Sans" font-size="12" lengthAdjust="spacing" textLength="128.1973" x="420.7834" y="1140.1074">tr&#7841;ng th&#225;i "ch&#7901; x&#7917; l&#253;"</text><rect fill="#F1F1F1" height="47.9375" rx="12.5" ry="12.5" style="stroke:#495057;stroke-width:0.5;" width="124.3145" x="430.1838" y="1172.9375"/><text fill="#000000" font-family="Sans" font-size="12" lengthAdjust="spacing" textLength="104.3145" x="440.1838" y="1194.0762">D&#7921;ng v&#224; ki&#7875;m tra</text><text fill="#000000" font-family="Sans" font-size="12" lengthAdjust="spacing" textLength="69.2988" x="440.1838" y="1208.0449">6 &#273;&#7863;c tr&#432;ng</text><rect fill="none" height="244.1719" style="stroke:#000000;stroke-width:1.5;" width="259.5273" x="362.5774" y="1230.875"/><path d="M509.6311,1230.875 L509.6311,1240.1719 L499.6311,1250.1719 L362.5774,1250.1719" fill="none" style="stroke:#000000;stroke-width:1.5;"/><text fill="#000000" font-family="Sans" font-size="14" lengthAdjust="spacing" textLength="137.0537" x="365.5774" y="1244.8701">Ch&#7845;m &#273;i&#7875;m quy t&#7855;c</text><rect fill="#F1F1F1" height="33.9688" rx="12.5" ry="12.5" style="stroke:#495057;stroke-width:0.5;" width="198.4766" x="393.1028" y="1267.1719"/><text fill="#000000" font-family="Sans" font-size="12" lengthAdjust="spacing" textLength="178.4766" x="403.1028" y="1288.3105">&#272;&#7885;c ch&#237;nh s&#225;ch &#273;ang &#225;p d&#7909;ng</text><rect fill="#F1F1F1" height="33.9688" rx="12.5" ry="12.5" style="stroke:#495057;stroke-width:0.5;" width="239.5273" x="372.5774" y="1321.1406"/><text fill="#000000" font-family="Sans" font-size="12" lengthAdjust="spacing" textLength="219.5273" x="382.5774" y="1342.2793">&#272;&#7889;i chi&#7871;u t&#7915;ng quy t&#7855;c v&#7899;i &#273;&#7863;c tr&#432;ng</text><rect fill="#F1F1F1" height="33.9688" rx="12.5" ry="12.5" style="stroke:#495057;stroke-width:0.5;" width="161.0996" x="411.7913" y="1375.1094"/><text fill="#000000" font-family="Sans" font-size="12" lengthAdjust="spacing" textLength="141.0996" x="421.7913" y="1396.248">T&#237;nh &#273;i&#7875;m quy t&#7855;c (0-1)</text><rect fill="#F1F1F1" height="33.9688" rx="12.5" ry="12.5" style="stroke:#495057;stroke-width:0.5;" width="221.8789" x="381.4016" y="1429.0781"/><text fill="#000000" font-family="Sans" font-size="12" lengthAdjust="spacing" textLength="201.8789" x="391.4016" y="1450.2168">Nh&#7853;t k&#253; giai &#273;o&#7841;n rule_evaluation</text><rect fill="none" height="308.7031" style="stroke:#000000;stroke-width:1.5;" width="637.3564" x="251.6096" y="1485.0469"/><path d="M365.4338,1485.0469 L365.4338,1494.3438 L355.4338,1504.3438 L251.6096,1504.3438" fill="none" style="stroke:#000000;stroke-width:1.5;"/><text fill="#000000" font-family="Sans" font-size="14" lengthAdjust="spacing" textLength="103.8242" x="254.6096" y="1499.042">G&#7885;i ML Service</text><rect fill="#F1F1F1" height="47.9375" rx="12.5" ry="12.5" style="stroke:#495057;stroke-width:0.5;" width="237.2188" x="373.7317" y="1521.3438"/><text fill="#000000" font-family="Sans" font-size="12" lengthAdjust="spacing" textLength="217.2188" x="383.7317" y="1542.4824">HTTP POST /api/v1/internal/ml/score</text><text fill="#000000" font-family="Sans" font-size="12" lengthAdjust="spacing" textLength="178.7168" x="383.7317" y="1556.4512">(6 &#273;&#7863;c tr&#432;ng, th&#7901;i h&#7841;n ch&#7901; 5s)</text><polygon fill="#F1F1F1" points="455.9036,1589.2813,528.7786,1589.2813,540.7786,1601.2813,528.7786,1613.2813,455.9036,1613.2813,443.9036,1601.2813,455.9036,1589.2813" style="stroke:#495057;stroke-width:0.5;stroke-linejoin:miter;stroke-miterlimit:10;"/><text fill="#000000" font-family="Sans" font-size="11" lengthAdjust="spacing" textLength="72.875" x="455.9036" y="1605.0894">ML ph&#7843;n h&#7891;i?</text><text fill="#000000" font-family="Sans" font-size="11" lengthAdjust="spacing" textLength="14.4106" x="429.4929" y="1598.687">C&#243;</text><text fill="#000000" font-family="Sans" font-size="11" lengthAdjust="spacing" textLength="58.4106" x="540.7786" y="1598.687">Kh&#244;ng / l&#7895;i</text><rect fill="#F1F1F1" height="47.9375" rx="12.5" ry="12.5" style="stroke:#495057;stroke-width:0.5;" width="216.3652" x="271.6096" y="1623.2813"/><text fill="#000000" font-family="Sans" font-size="12" lengthAdjust="spacing" textLength="167.9414" x="281.6096" y="1644.4199">Nh&#7853;n &#273;i&#7875;m b&#7845;t th&#432;&#7901;ng (0-1)</text><text fill="#000000" font-family="Sans" font-size="12" lengthAdjust="spacing" textLength="196.3652" x="281.6096" y="1658.3887">+ m&#227; l&#253; do + phi&#234;n b&#7843;n m&#244; h&#236;nh</text><rect fill="#F1F1F1" height="47.9375" rx="12.5" ry="12.5" style="stroke:#495057;stroke-width:0.5;" width="193.8301" x="507.9749" y="1623.2813"/><text fill="#000000" font-family="Sans" font-size="12" lengthAdjust="spacing" textLength="173.8301" x="517.9749" y="1644.4199">Ghi nh&#7853;t k&#253; giai &#273;o&#7841;n ml_call</text><text fill="#000000" font-family="Sans" font-size="12" lengthAdjust="spacing" textLength="136.8281" x="517.9749" y="1658.3887">(l&#253; do: ml_unavailable)</text><path d="M709.5002,1681.2188 L709.5002,1712.4844 L689.5002,1716.4844 L709.5002,1720.4844 L709.5002,1751.75 A0,0 0 0 0 709.5002,1751.75 L876.9661,1751.75 A0,0 0 0 0 876.9661,1751.75 L876.9661,1691.2188 L866.9661,1681.2188 L709.5002,1681.2188 A0,0 0 0 0 709.5002,1681.2188" fill="#FEFFDD" style="stroke:#181818;stroke-width:0.5;"/><path d="M866.9661,1681.2188 L866.9661,1691.2188 L876.9661,1691.2188 L866.9661,1681.2188" fill="#FEFFDD" style="stroke:#181818;stroke-width:0.5;"/><text fill="#000000" font-family="Sans" font-size="13" lengthAdjust="spacing" textLength="139.2739" x="715.5002" y="1698.2856">H&#7879; th&#7889;ng KH&#212;NG s&#7853;p</text><text fill="#000000" font-family="Sans" font-size="13" lengthAdjust="spacing" textLength="138.0425" x="715.5002" y="1713.4185">v&#236; ML l&#7895;i &#8212; &#273;&#226;y g&#7885;i l&#224;</text><text fill="#000000" font-family="Sans" font-size="13" lengthAdjust="spacing" textLength="146.4658" x="715.5002" y="1728.5513">suy gi&#7843;m &#234;m (graceful</text><text fill="#000000" font-family="Sans" font-size="13" lengthAdjust="spacing" textLength="84.0049" x="715.5002" y="1743.6841">degradation)</text><rect fill="#F1F1F1" height="47.9375" rx="12.5" ry="12.5" style="stroke:#495057;stroke-width:0.5;" width="169.2207" x="520.2795" y="1692.5156"/><text fill="#000000" font-family="Sans" font-size="12" lengthAdjust="spacing" textLength="149.2207" x="530.2795" y="1713.6543">Chuy&#7875;n sang ch&#7845;m &#273;i&#7875;m</text><text fill="#000000" font-family="Sans" font-size="12" lengthAdjust="spacing" textLength="116.5781" x="530.2795" y="1727.623">CH&#7880; B&#7856;NG QUY T&#7854;C</text><polygon fill="#F1F1F1" points="492.3411,1757.75,504.3411,1769.75,492.3411,1781.75,480.3411,1769.75,492.3411,1757.75" style="stroke:#495057;stroke-width:0.5;stroke-linejoin:miter;stroke-miterlimit:10;"/><rect fill="#F1F1F1" height="47.9375" rx="12.5" ry="12.5" style="stroke:#495057;stroke-width:0.5;" width="234.8223" x="374.9299" y="1813.75"/><text fill="#000000" font-family="Sans" font-size="12" lengthAdjust="spacing" textLength="60.5684" x="384.9299" y="1834.8887">G&#7896;P &#272;I&#7874;M</text><text fill="#000000" font-family="Sans" font-size="12" lengthAdjust="spacing" textLength="214.8223" x="384.9299" y="1848.8574">0.4 x &#273;i&#7875;m quy t&#7855;c + 0.6 x &#273;i&#7875;m ML</text><rect fill="#F1F1F1" height="61.9063" rx="12.5" ry="12.5" style="stroke:#495057;stroke-width:0.5;" width="222.4531" x="381.1145" y="1881.6875"/><text fill="#000000" font-family="Sans" font-size="12" lengthAdjust="spacing" textLength="101.9531" x="391.1145" y="1902.8262">X&#7870;P M&#7912;C R&#7910;I RO</text><text fill="#000000" font-family="Sans" font-size="12" lengthAdjust="spacing" textLength="187.0254" x="391.1145" y="1916.7949">(&lt;0.25 th&#7845;p &#183; &lt;0.50 trung b&#236;nh</text><text fill="#000000" font-family="Sans" font-size="12" lengthAdjust="spacing" textLength="202.4531" x="391.1145" y="1930.7637">&lt;0.75 cao &#183; c&#242;n l&#7841;i nghi&#234;m tr&#7885;ng)</text><rect fill="#F1F1F1" height="47.9375" rx="12.5" ry="12.5" style="stroke:#495057;stroke-width:0.5;" width="185.6855" x="399.4983" y="1963.5938"/><text fill="#000000" font-family="Sans" font-size="12" lengthAdjust="spacing" textLength="162.9082" x="409.4983" y="1984.7324">Ghi b&#7843;ng risk_assessments</text><text fill="#000000" font-family="Sans" font-size="12" lengthAdjust="spacing" textLength="165.6855" x="409.4983" y="1998.7012">+ nh&#7853;t k&#253; giai &#273;o&#7841;n scoring</text><polygon fill="#F1F1F1" points="437.188,2043.5313,547.4941,2043.5313,559.4941,2056.3359,547.4941,2069.1406,437.188,2069.1406,425.188,2056.3359,437.188,2043.5313" style="stroke:#495057;stroke-width:0.5;stroke-linejoin:miter;stroke-miterlimit:10;"/><text fill="#000000" font-family="Sans" font-size="11" lengthAdjust="spacing" textLength="78.3213" x="437.188" y="2053.7417">M&#7913;c r&#7911;i ro cao</text><text fill="#000000" font-family="Sans" font-size="11" lengthAdjust="spacing" textLength="110.3062" x="437.188" y="2066.5464">ho&#7863;c nghi&#234;m tr&#7885;ng?</text><text fill="#000000" font-family="Sans" font-size="11" lengthAdjust="spacing" textLength="14.4106" x="410.7773" y="2053.7417">C&#243;</text><text fill="#000000" font-family="Sans" font-size="11" lengthAdjust="spacing" textLength="34.8691" x="559.4941" y="2053.7417">Kh&#244;ng</text><rect fill="none" height="157.2031" style="stroke:#000000;stroke-width:1.5;" width="248.5938" x="160.0044" y="2079.1406"/><path d="M360.0435,2079.1406 L360.0435,2088.4375 L350.0435,2098.4375 L160.0044,2098.4375" fill="none" style="stroke:#000000;stroke-width:1.5;"/><text fill="#000000" font-family="Sans" font-size="14" lengthAdjust="spacing" textLength="190.0391" x="163.0044" y="2093.1357">DETECTION ENGINE (8001)</text><rect fill="#F1F1F1" height="47.9375" rx="12.5" ry="12.5" style="stroke:#495057;stroke-width:0.5;" width="228.5938" x="170.0044" y="2115.4375"/><text fill="#000000" font-family="Sans" font-size="12" lengthAdjust="spacing" textLength="176.1797" x="180.0044" y="2136.5762">T&#7841;o c&#7843;nh b&#225;o (tr&#7841;ng th&#225;i m&#7903;)</text><text fill="#000000" font-family="Sans" font-size="12" lengthAdjust="spacing" textLength="208.5938" x="180.0044" y="2150.5449">+ ph&#226;n c&#244;ng cho chuy&#234;n vi&#234;n SOC</text><rect fill="#F1F1F1" height="33.9688" rx="12.5" ry="12.5" style="stroke:#495057;stroke-width:0.5;" width="198.3887" x="185.1069" y="2190.375"/><text fill="#000000" font-family="Sans" font-size="12" lengthAdjust="spacing" textLength="178.3887" x="195.1069" y="2211.5137">Nh&#7853;t k&#253; giai &#273;o&#7841;n action_sent</text><polygon fill="#F1F1F1" points="231.1382,2256.3438,337.4644,2256.3438,349.4644,2268.3438,337.4644,2280.3438,231.1382,2280.3438,219.1382,2268.3438,231.1382,2256.3438" style="stroke:#495057;stroke-width:0.5;stroke-linejoin:miter;stroke-miterlimit:10;"/><text fill="#000000" font-family="Sans" font-size="11" lengthAdjust="spacing" textLength="106.3262" x="231.1382" y="2272.1519">M&#7913;c nghi&#234;m tr&#7885;ng?</text><text fill="#000000" font-family="Sans" font-size="11" lengthAdjust="spacing" textLength="14.4106" x="204.7275" y="2265.7495">C&#243;</text><text fill="#000000" font-family="Sans" font-size="11" lengthAdjust="spacing" textLength="34.8691" x="349.4644" y="2265.7495">Kh&#244;ng</text><rect fill="none" height="164.1719" style="stroke:#000000;stroke-width:1.5;" width="251.9219" x="16" y="2290.3438"/><path d="M147.2832,2290.3438 L147.2832,2299.6406 L137.2832,2309.6406 L16,2309.6406" fill="none" style="stroke:#000000;stroke-width:1.5;"/><text fill="#000000" font-family="Sans" font-size="14" lengthAdjust="spacing" textLength="121.2832" x="19" y="2304.3389">CORE APP (8000)</text><rect fill="#F1F1F1" height="61.9063" rx="12.5" ry="12.5" style="stroke:#495057;stroke-width:0.5;" width="231.9219" x="26" y="2326.6406"/><text fill="#000000" font-family="Sans" font-size="12" lengthAdjust="spacing" textLength="211.9219" x="36" y="2347.7793">Nh&#7853;n y&#234;u c&#7847;u h&#224;nh &#273;&#7897;ng qua HTTP</text><text fill="#000000" font-family="Sans" font-size="12" lengthAdjust="spacing" textLength="192.709" x="36" y="2361.748">(thu h&#7891;i phi&#234;n / kho&#225; t&#224;i kho&#7843;n /</text><text fill="#000000" font-family="Sans" font-size="12" lengthAdjust="spacing" textLength="98.4316" x="36" y="2375.7168">bu&#7897;c &#273;&#259;ng xu&#7845;t)</text><rect fill="#F1F1F1" height="33.9688" rx="12.5" ry="12.5" style="stroke:#495057;stroke-width:0.5;" width="169.8125" x="57.0547" y="2408.5469"/><text fill="#000000" font-family="Sans" font-size="12" lengthAdjust="spacing" textLength="149.8125" x="67.0547" y="2429.6855">Th&#7921;c thi + ghi audit_logs</text><rect fill="none" height="90.2656" style="stroke:#000000;stroke-width:1.5;" width="277.4395" x="287.9219" y="2290.3438"/><path d="M419.2051,2290.3438 L419.2051,2299.6406 L409.2051,2309.6406 L287.9219,2309.6406" fill="none" style="stroke:#000000;stroke-width:1.5;"/><text fill="#000000" font-family="Sans" font-size="14" lengthAdjust="spacing" textLength="121.2832" x="290.9219" y="2304.3389">CORE APP (8000)</text><rect fill="#F1F1F1" height="33.9688" rx="12.5" ry="12.5" style="stroke:#495057;stroke-width:0.5;" width="257.4395" x="297.9219" y="2326.6406"/><text fill="#000000" font-family="Sans" font-size="12" lengthAdjust="spacing" textLength="237.4395" x="307.9219" y="2347.7793">Y&#234;u c&#7847;u MFA cho l&#7847;n &#273;&#259;ng nh&#7853;p k&#7871; ti&#7871;p</text><polygon fill="#F1F1F1" points="284.3013,2460.5156,296.3013,2472.5156,284.3013,2484.5156,272.3013,2472.5156,284.3013,2460.5156" style="stroke:#495057;stroke-width:0.5;stroke-linejoin:miter;stroke-miterlimit:10;"/><rect fill="none" height="96.2344" style="stroke:#000000;stroke-width:1.5;" width="210.0391" x="595.3613" y="2079.1406"/><path d="M795.4004,2079.1406 L795.4004,2088.4375 L785.4004,2098.4375 L595.3613,2098.4375" fill="none" style="stroke:#000000;stroke-width:1.5;"/><text fill="#000000" font-family="Sans" font-size="14" lengthAdjust="spacing" textLength="190.0391" x="598.3613" y="2093.1357">DETECTION ENGINE (8001)</text><rect fill="#F1F1F1" height="47.9375" rx="12.5" ry="12.5" style="stroke:#495057;stroke-width:0.5;" width="148.8008" x="625.9805" y="2115.4375"/><text fill="#000000" font-family="Sans" font-size="12" lengthAdjust="spacing" textLength="90.6387" x="635.9805" y="2136.5762">Ch&#7881; ghi nh&#7853;t k&#253;</text><text fill="#000000" font-family="Sans" font-size="12" lengthAdjust="spacing" textLength="128.8008" x="635.9805" y="2150.5449">(kh&#244;ng t&#7841;o c&#7843;nh b&#225;o)</text><polygon fill="#F1F1F1" points="492.3411,2490.5156,504.3411,2502.5156,492.3411,2514.5156,480.3411,2502.5156,492.3411,2490.5156" style="stroke:#495057;stroke-width:0.5;stroke-linejoin:miter;stroke-miterlimit:10;"/><ellipse cx="492.3411" cy="2545.5156" fill="none" rx="11" ry="11" style="stroke:#222222;stroke-width:1;"/><ellipse cx="492.3411" cy="2545.5156" fill="#222222" rx="6" ry="6" style="stroke:#222222;stroke-width:1;"/><line style="stroke:#343A40;stroke-width:1.2;" x1="492.3411" x2="492.3411" y1="243.7813" y2="263.7813"/><polygon fill="#343A40" points="488.3411,253.7813,492.3411,263.7813,496.3411,253.7813,492.3411,257.7813" style="stroke:#343A40;stroke-width:1;stroke-linejoin:miter;stroke-miterlimit:10;"/><line style="stroke:#343A40;stroke-width:1.2;" x1="492.3411" x2="492.3411" y1="311.7188" y2="333.0156"/><polygon fill="#343A40" points="488.3411,323.0156,492.3411,333.0156,496.3411,323.0156,492.3411,327.0156" style="stroke:#343A40;stroke-width:1;stroke-linejoin:miter;stroke-miterlimit:10;"/><line style="stroke:#343A40;stroke-width:1.2;" x1="492.3411" x2="492.3411" y1="380.9531" y2="412.25"/><polygon fill="#343A40" points="488.3411,402.25,492.3411,412.25,496.3411,402.25,492.3411,406.25" style="stroke:#343A40;stroke-width:1;stroke-linejoin:miter;stroke-miterlimit:10;"/><line style="stroke:#343A40;stroke-width:1.2;" x1="492.3411" x2="492.3411" y1="163.5156" y2="209.8125"/><polygon fill="#343A40" points="488.3411,199.8125,492.3411,209.8125,496.3411,199.8125,492.3411,203.8125" style="stroke:#343A40;stroke-width:1;stroke-linejoin:miter;stroke-miterlimit:10;"/><line style="stroke:#343A40;stroke-width:1.2;" x1="492.3411" x2="492.3411" y1="566.4219" y2="586.4219"/><polygon fill="#343A40" points="488.3411,576.4219,492.3411,586.4219,496.3411,576.4219,492.3411,580.4219" style="stroke:#343A40;stroke-width:1;stroke-linejoin:miter;stroke-miterlimit:10;"/><line style="stroke:#343A40;stroke-width:1.2;" x1="492.3411" x2="492.3411" y1="460.1875" y2="518.4844"/><polygon fill="#343A40" points="488.3411,508.4844,492.3411,518.4844,496.3411,508.4844,492.3411,512.4844" style="stroke:#343A40;stroke-width:1;stroke-linejoin:miter;stroke-miterlimit:10;"/><line style="stroke:#343A40;stroke-width:1.2;" x1="701.2529" x2="701.2529" y1="842.5313" y2="876.5"/><polygon fill="#343A40" points="697.2529,866.5,701.2529,876.5,705.2529,866.5,701.2529,870.5" style="stroke:#343A40;stroke-width:1;stroke-linejoin:miter;stroke-miterlimit:10;"/><line style="stroke:#343A40;stroke-width:1.2;" x1="428.9451" x2="283.4292" y1="772.5938" y2="772.5938"/><line style="stroke:#343A40;stroke-width:1.2;" x1="283.4292" x2="283.4292" y1="772.5938" y2="794.5938"/><polygon fill="#343A40" points="279.4292,784.5938,283.4292,794.5938,287.4292,784.5938,283.4292,788.5938" style="stroke:#343A40;stroke-width:1;stroke-linejoin:miter;stroke-miterlimit:10;"/><line style="stroke:#343A40;stroke-width:1.2;" x1="555.7371" x2="701.2529" y1="772.5938" y2="772.5938"/><line style="stroke:#343A40;stroke-width:1.2;" x1="701.2529" x2="701.2529" y1="772.5938" y2="794.5938"/><polygon fill="#343A40" points="697.2529,784.5938,701.2529,794.5938,705.2529,784.5938,701.2529,788.5938" style="stroke:#343A40;stroke-width:1;stroke-linejoin:miter;stroke-miterlimit:10;"/><line style="stroke:#343A40;stroke-width:1.2;" x1="283.4292" x2="283.4292" y1="856.5" y2="928.4688"/><line style="stroke:#343A40;stroke-width:1.2;" x1="283.4292" x2="480.3411" y1="928.4688" y2="928.4688"/><polygon fill="#343A40" points="470.3411,924.4688,480.3411,928.4688,470.3411,932.4688,474.3411,928.4688" style="stroke:#343A40;stroke-width:1;stroke-linejoin:miter;stroke-miterlimit:10;"/><line style="stroke:#343A40;stroke-width:1.2;" x1="701.2529" x2="701.2529" y1="910.4688" y2="928.4688"/><line style="stroke:#343A40;stroke-width:1.2;" x1="701.2529" x2="504.3411" y1="928.4688" y2="928.4688"/><polygon fill="#343A40" points="514.3411,924.4688,504.3411,928.4688,514.3411,932.4688,510.3411,928.4688" style="stroke:#343A40;stroke-width:1;stroke-linejoin:miter;stroke-miterlimit:10;"/><line style="stroke:#343A40;stroke-width:1.2;" x1="492.3411" x2="492.3411" y1="740.5938" y2="760.5938"/><polygon fill="#343A40" points="488.3411,750.5938,492.3411,760.5938,496.3411,750.5938,492.3411,754.5938" style="stroke:#343A40;stroke-width:1;stroke-linejoin:miter;stroke-miterlimit:10;"/><line style="stroke:#343A40;stroke-width:1.2;" x1="492.3411" x2="492.3411" y1="634.3594" y2="692.6563"/><polygon fill="#343A40" points="488.3411,682.6563,492.3411,692.6563,496.3411,682.6563,492.3411,686.6563" style="stroke:#343A40;stroke-width:1;stroke-linejoin:miter;stroke-miterlimit:10;"/><line style="stroke:#343A40;stroke-width:1.2;" x1="492.3411" x2="492.3411" y1="940.4688" y2="998.7656"/><polygon fill="#343A40" points="488.3411,988.7656,492.3411,998.7656,496.3411,988.7656,492.3411,992.7656" style="stroke:#343A40;stroke-width:1;stroke-linejoin:miter;stroke-miterlimit:10;"/><line style="stroke:#343A40;stroke-width:1.2;" x1="492.3411" x2="492.3411" y1="1152.9375" y2="1172.9375"/><polygon fill="#343A40" points="488.3411,1162.9375,492.3411,1172.9375,496.3411,1162.9375,492.3411,1166.9375" style="stroke:#343A40;stroke-width:1;stroke-linejoin:miter;stroke-miterlimit:10;"/><line style="stroke:#343A40;stroke-width:1.2;" x1="492.3411" x2="492.3411" y1="1301.1406" y2="1321.1406"/><polygon fill="#343A40" points="488.3411,1311.1406,492.3411,1321.1406,496.3411,1311.1406,492.3411,1315.1406" style="stroke:#343A40;stroke-width:1;stroke-linejoin:miter;stroke-miterlimit:10;"/><line style="stroke:#343A40;stroke-width:1.2;" x1="492.3411" x2="492.3411" y1="1355.1094" y2="1375.1094"/><polygon fill="#343A40" points="488.3411,1365.1094,492.3411,1375.1094,496.3411,1365.1094,492.3411,1369.1094" style="stroke:#343A40;stroke-width:1;stroke-linejoin:miter;stroke-miterlimit:10;"/><line style="stroke:#343A40;stroke-width:1.2;" x1="492.3411" x2="492.3411" y1="1409.0781" y2="1429.0781"/><polygon fill="#343A40" points="488.3411,1419.0781,492.3411,1429.0781,496.3411,1419.0781,492.3411,1423.0781" style="stroke:#343A40;stroke-width:1;stroke-linejoin:miter;stroke-miterlimit:10;"/><line style="stroke:#343A40;stroke-width:1.2;" x1="492.3411" x2="492.3411" y1="1220.875" y2="1267.1719"/><polygon fill="#343A40" points="488.3411,1257.1719,492.3411,1267.1719,496.3411,1257.1719,492.3411,1261.1719" style="stroke:#343A40;stroke-width:1;stroke-linejoin:miter;stroke-miterlimit:10;"/><line style="stroke:#343A40;stroke-width:1.2;" x1="604.8899" x2="604.8899" y1="1671.2188" y2="1692.5156"/><polygon fill="#343A40" points="600.8899,1682.5156,604.8899,1692.5156,608.8899,1682.5156,604.8899,1686.5156" style="stroke:#343A40;stroke-width:1;stroke-linejoin:miter;stroke-miterlimit:10;"/><line style="stroke:#343A40;stroke-width:1.2;" x1="443.9036" x2="379.7922" y1="1601.2813" y2="1601.2813"/><line style="stroke:#343A40;stroke-width:1.2;" x1="379.7922" x2="379.7922" y1="1601.2813" y2="1623.2813"/><polygon fill="#343A40" points="375.7922,1613.2813,379.7922,1623.2813,383.7922,1613.2813,379.7922,1617.2813" style="stroke:#343A40;stroke-width:1;stroke-linejoin:miter;stroke-miterlimit:10;"/><line style="stroke:#343A40;stroke-width:1.2;" x1="540.7786" x2="604.8899" y1="1601.2813" y2="1601.2813"/><line style="stroke:#343A40;stroke-width:1.2;" x1="604.8899" x2="604.8899" y1="1601.2813" y2="1623.2813"/><polygon fill="#343A40" points="600.8899,1613.2813,604.8899,1623.2813,608.8899,1613.2813,604.8899,1617.2813" style="stroke:#343A40;stroke-width:1;stroke-linejoin:miter;stroke-miterlimit:10;"/><line style="stroke:#343A40;stroke-width:1.2;" x1="379.7922" x2="379.7922" y1="1671.2188" y2="1769.75"/><line style="stroke:#343A40;stroke-width:1.2;" x1="379.7922" x2="480.3411" y1="1769.75" y2="1769.75"/><polygon fill="#343A40" points="470.3411,1765.75,480.3411,1769.75,470.3411,1773.75,474.3411,1769.75" style="stroke:#343A40;stroke-width:1;stroke-linejoin:miter;stroke-miterlimit:10;"/><line style="stroke:#343A40;stroke-width:1.2;" x1="604.8899" x2="604.8899" y1="1740.4531" y2="1769.75"/><line style="stroke:#343A40;stroke-width:1.2;" x1="604.8899" x2="504.3411" y1="1769.75" y2="1769.75"/><polygon fill="#343A40" points="514.3411,1765.75,504.3411,1769.75,514.3411,1773.75,510.3411,1769.75" style="stroke:#343A40;stroke-width:1;stroke-linejoin:miter;stroke-miterlimit:10;"/><line style="stroke:#343A40;stroke-width:1.2;" x1="492.3411" x2="492.3411" y1="1569.2813" y2="1589.2813"/><polygon fill="#343A40" points="488.3411,1579.2813,492.3411,1589.2813,496.3411,1579.2813,492.3411,1583.2813" style="stroke:#343A40;stroke-width:1;stroke-linejoin:miter;stroke-miterlimit:10;"/><line style="stroke:#343A40;stroke-width:1.2;" x1="492.3411" x2="492.3411" y1="1463.0469" y2="1521.3438"/><polygon fill="#343A40" points="488.3411,1511.3438,492.3411,1521.3438,496.3411,1511.3438,492.3411,1515.3438" style="stroke:#343A40;stroke-width:1;stroke-linejoin:miter;stroke-miterlimit:10;"/><line style="stroke:#343A40;stroke-width:1.2;" x1="492.3411" x2="492.3411" y1="1781.75" y2="1813.75"/><polygon fill="#343A40" points="488.3411,1803.75,492.3411,1813.75,496.3411,1803.75,492.3411,1807.75" style="stroke:#343A40;stroke-width:1;stroke-linejoin:miter;stroke-miterlimit:10;"/><line style="stroke:#343A40;stroke-width:1.2;" x1="492.3411" x2="492.3411" y1="1861.6875" y2="1881.6875"/><polygon fill="#343A40" points="488.3411,1871.6875,492.3411,1881.6875,496.3411,1871.6875,492.3411,1875.6875" style="stroke:#343A40;stroke-width:1;stroke-linejoin:miter;stroke-miterlimit:10;"/><line style="stroke:#343A40;stroke-width:1.2;" x1="492.3411" x2="492.3411" y1="1943.5938" y2="1963.5938"/><polygon fill="#343A40" points="488.3411,1953.5938,492.3411,1963.5938,496.3411,1953.5938,492.3411,1957.5938" style="stroke:#343A40;stroke-width:1;stroke-linejoin:miter;stroke-miterlimit:10;"/><line style="stroke:#343A40;stroke-width:1.2;" x1="492.3411" x2="492.3411" y1="1046.7031" y2="1105"/><polygon fill="#343A40" points="488.3411,1095,492.3411,1105,496.3411,1095,492.3411,1099" style="stroke:#343A40;stroke-width:1;stroke-linejoin:miter;stroke-miterlimit:10;"/><line style="stroke:#343A40;stroke-width:1.2;" x1="284.3013" x2="284.3013" y1="2163.375" y2="2190.375"/><polygon fill="#343A40" points="280.3013,2180.375,284.3013,2190.375,288.3013,2180.375,284.3013,2184.375" style="stroke:#343A40;stroke-width:1;stroke-linejoin:miter;stroke-miterlimit:10;"/><line style="stroke:#343A40;stroke-width:1.2;" x1="141.9609" x2="141.9609" y1="2388.5469" y2="2408.5469"/><polygon fill="#343A40" points="137.9609,2398.5469,141.9609,2408.5469,145.9609,2398.5469,141.9609,2402.5469" style="stroke:#343A40;stroke-width:1;stroke-linejoin:miter;stroke-miterlimit:10;"/><line style="stroke:#343A40;stroke-width:1.2;" x1="219.1382" x2="141.9609" y1="2268.3438" y2="2268.3438"/><line style="stroke:#343A40;stroke-width:1.2;" x1="141.9609" x2="141.9609" y1="2268.3438" y2="2326.6406"/><polygon fill="#343A40" points="137.9609,2316.6406,141.9609,2326.6406,145.9609,2316.6406,141.9609,2320.6406" style="stroke:#343A40;stroke-width:1;stroke-linejoin:miter;stroke-miterlimit:10;"/><line style="stroke:#343A40;stroke-width:1.2;" x1="349.4644" x2="426.6416" y1="2268.3438" y2="2268.3438"/><line style="stroke:#343A40;stroke-width:1.2;" x1="426.6416" x2="426.6416" y1="2268.3438" y2="2326.6406"/><polygon fill="#343A40" points="422.6416,2316.6406,426.6416,2326.6406,430.6416,2316.6406,426.6416,2320.6406" style="stroke:#343A40;stroke-width:1;stroke-linejoin:miter;stroke-miterlimit:10;"/><line style="stroke:#343A40;stroke-width:1.2;" x1="141.9609" x2="141.9609" y1="2442.5156" y2="2472.5156"/><line style="stroke:#343A40;stroke-width:1.2;" x1="141.9609" x2="272.3013" y1="2472.5156" y2="2472.5156"/><polygon fill="#343A40" points="262.3013,2468.5156,272.3013,2472.5156,262.3013,2476.5156,266.3013,2472.5156" style="stroke:#343A40;stroke-width:1;stroke-linejoin:miter;stroke-miterlimit:10;"/><line style="stroke:#343A40;stroke-width:1.2;" x1="426.6416" x2="426.6416" y1="2360.6094" y2="2472.5156"/><line style="stroke:#343A40;stroke-width:1.2;" x1="426.6416" x2="296.3013" y1="2472.5156" y2="2472.5156"/><polygon fill="#343A40" points="306.3013,2468.5156,296.3013,2472.5156,306.3013,2476.5156,302.3013,2472.5156" style="stroke:#343A40;stroke-width:1;stroke-linejoin:miter;stroke-miterlimit:10;"/><line style="stroke:#343A40;stroke-width:1.2;" x1="284.3013" x2="284.3013" y1="2224.3438" y2="2256.3438"/><polygon fill="#343A40" points="280.3013,2246.3438,284.3013,2256.3438,288.3013,2246.3438,284.3013,2250.3438" style="stroke:#343A40;stroke-width:1;stroke-linejoin:miter;stroke-miterlimit:10;"/><line style="stroke:#343A40;stroke-width:1.2;" x1="425.188" x2="284.3013" y1="2056.3359" y2="2056.3359"/><line style="stroke:#343A40;stroke-width:1.2;" x1="284.3013" x2="284.3013" y1="2056.3359" y2="2115.4375"/><polygon fill="#343A40" points="280.3013,2105.4375,284.3013,2115.4375,288.3013,2105.4375,284.3013,2109.4375" style="stroke:#343A40;stroke-width:1;stroke-linejoin:miter;stroke-miterlimit:10;"/><line style="stroke:#343A40;stroke-width:1.2;" x1="559.4941" x2="700.3809" y1="2056.3359" y2="2056.3359"/><line style="stroke:#343A40;stroke-width:1.2;" x1="700.3809" x2="700.3809" y1="2056.3359" y2="2115.4375"/><polygon fill="#343A40" points="696.3809,2105.4375,700.3809,2115.4375,704.3809,2105.4375,700.3809,2109.4375" style="stroke:#343A40;stroke-width:1;stroke-linejoin:miter;stroke-miterlimit:10;"/><line style="stroke:#343A40;stroke-width:1.2;" x1="284.3013" x2="284.3013" y1="2484.5156" y2="2502.5156"/><line style="stroke:#343A40;stroke-width:1.2;" x1="284.3013" x2="480.3411" y1="2502.5156" y2="2502.5156"/><polygon fill="#343A40" points="470.3411,2498.5156,480.3411,2502.5156,470.3411,2506.5156,474.3411,2502.5156" style="stroke:#343A40;stroke-width:1;stroke-linejoin:miter;stroke-miterlimit:10;"/><line style="stroke:#343A40;stroke-width:1.2;" x1="700.3809" x2="700.3809" y1="2163.375" y2="2502.5156"/><line style="stroke:#343A40;stroke-width:1.2;" x1="700.3809" x2="504.3411" y1="2502.5156" y2="2502.5156"/><polygon fill="#343A40" points="514.3411,2498.5156,504.3411,2502.5156,514.3411,2506.5156,510.3411,2502.5156" style="stroke:#343A40;stroke-width:1;stroke-linejoin:miter;stroke-miterlimit:10;"/><line style="stroke:#343A40;stroke-width:1.2;" x1="492.3411" x2="492.3411" y1="2011.5313" y2="2043.5313"/><polygon fill="#343A40" points="488.3411,2033.5313,492.3411,2043.5313,496.3411,2033.5313,492.3411,2037.5313" style="stroke:#343A40;stroke-width:1;stroke-linejoin:miter;stroke-miterlimit:10;"/><line style="stroke:#343A40;stroke-width:1.2;" x1="492.3411" x2="492.3411" y1="2514.5156" y2="2534.5156"/><polygon fill="#343A40" points="488.3411,2524.5156,492.3411,2534.5156,496.3411,2524.5156,492.3411,2528.5156" style="stroke:#343A40;stroke-width:1;stroke-linejoin:miter;stroke-miterlimit:10;"/><g class="legend" data-source-line="101"><rect fill="none" height="75.1875" rx="7.5" ry="7.5" style="stroke:#000000;stroke-width:1;" width="479.9023" x="218.5319" y="2577.5156"/><text fill="#000000" font-family="Sans" font-size="14" font-weight="700" lengthAdjust="spacing" textLength="469.9023" x="223.5319" y="2595.5107">B&#7889;n giai &#273;o&#7841;n lu&#244;n c&#243; trong nh&#7853;t k&#253; (detection_logs.stage):</text><text fill="#000000" font-family="Sans" font-size="14" lengthAdjust="spacing" textLength="405.5693" x="223.5319" y="2611.8076">`rule_evaluation` &#8594; `ml_call` &#8594; `scoring` &#8594; `action_sent`</text><text fill="#000000" font-family="Sans" font-size="14" lengthAdjust="spacing" textLength="289.96" x="223.5319" y="2628.1045">Nh&#7901; v&#7853;y, khi c&#243; khi&#7871;u n&#7841;i, c&#243; th&#7875; d&#7921;ng l&#7841;i</text><text fill="#000000" font-family="Sans" font-size="14" lengthAdjust="spacing" textLength="271.8994" x="223.5319" y="2644.4014">ch&#237;nh x&#225;c h&#7879; th&#7889;ng &#273;&#227; suy lu&#7853;n ra sao.</text></g><?plantuml-src bLThRzjK6FxkN_4gV4csjKsxjklAJMsMNjGrBMiGJ8hKkRPh7yK-3lPnrWALW4bSX2PHXWGLGYohnhWLnaMQY3MGSE5_c5_2-vxZf4vQBik7Al5v_LwVvpblmoRZBJtGFTZIZQOT-14tAxxh1_3KWlneOTyYT7JJlycu3Tkw6rgv4zFQrYDNBFXSr7JFWWsTXxdZkI3mRsPUBqvUd9ii3n_M7MOqkHM6C3uwaJiKJBWMkTrWhremFfD_pn2ipSJkl1-OLf1vdxmyLPwwT8RL5QPxFZV_tJYyoJnNvnQyfW7Cd-h7pCBbXJawoJkPcPwfNfxMzZHDvWelBOnCm5zlV0HNepI-WxrgEKb7WCFI-1qEn_l7j_0PTzBkKGksqkvz0SBvys4QVuQFY-sBenTBclRwYiCWJECVeAbU4q4QVuw6oLtkW4YEkF8NlQw5GW-4XkbZTEPpA5JMhbLXRdqTYZFbShbKaBNClfnq37mVNHg3EJnDfuiOhkMmv6iEt9R9C32JNxZTuEtahW-67rWZvfQoNLg6ZJH-22lBQVns3QG1EZveoK8Ql8XL7Q9_Fn9R_iwcrRQu24lqBlU51G6p7O4_079HqGdOWpLB4n7uwAcI7DGMmSCO0joq-u23pNGVp3H-tt2atSZ8Sz1qaf_Hc8gy1JkOmou4kZmj6CbFlKWUHl9astEn2cXcSLCcI3NMhwNTUr1VMwdMeBOuTnsB6knBBrWBUtZ8mC2Ods69U_b1pAVn9x2ujfhlLZQDum_I-BOnFE5kHwQVT5Y35wHBiDFuY1MoDkIdSFn1qa4ec5X918NZVHtFbJ7cAW9vE87uYW_0zf56WSoQEteqdEQLQhrQgI-lrQ1QMrokLILkndkuML_Rg0_aEG0UZDLCllIm6txI0OxHc8mffysseRWny6Po288uWN-x7VPy2OkrE1GhE1t4znrMajD2tQdEL6TcwzYHGvWeJm0MUwWYybv4PcP862IKySTN5ngyXmICueD4emGN0kXJ9bCx1KKSFy5qazmYG5GzPhGh_TxlsH3AP9CfTWTBHH1oWbMaaidCC0cQ5WxmFI3aZP-LghJDOSv2GONYganHjQ4wip1LlIovcJ7AzMt6DtKXBAybGZde76ZWMOL3n7vyX6Kypaezkv5FAyYpxIS0xI3aq5KVSJpj_aPDY3zcbCotID0q_Zvhq_4-CP9uUGJXQG2k9czUX_MbvAqQr9FRbIMefV4RlQ0rJFQHm3QYV9tHnGOVR45Xi0C5oPKh24Aq88qXADuYEkWDFas9TH-XB0P_FkGscUPbb0RleObwunN40kBfUqFbTS9Xmq4rTY3411rGF4mwBTAc-yfdPhfFAi5acv03tw1PtoMqQUgdiw7HIUUdae1YUMIyDrvgqP60PlAOP97y-DGI22BNGlNLtKYdaiXwRx36HQo0mUfLsB22DZEiVcrBzVewIEgFwIqsrXuVOrnO0TVTCSyT2qc8SEX33RmWHumAwSZmQX9JOPOcgG56aeB9wRwuCo00fOmxJrN7hqnLBwcYUB_oKnSbrT_Wvr7E3sdGOFfmlYVnYl5UyZCW4hcZuYj-hIXb65DGxGV5DMUoEYsfnl-XcvwxQUYkYsMhSBFq9E9wMsUklkLQMPdOl8eJxMBI7B6kP227emQlBANnkp2VTX_YbVR2YzUXddQ_g_HUFYLB06Z_ZkpiFdfRMKe-mlV2leBGfurymzOgzj7cWToyjqlanEcYdFKDGyGF4hDxw47ojGT5Ez0DQpjo-mQcXOzC2PTURt8IrHCCXQDPHCydwoWfg15lhJPuUNGITiw0wdaeZqxdJbQlIbA-d7P_NGVKkoyhS2sDlrY6QslOt6VAenDJL6xtVWj-VmJuUwgC08km-2sQPeFZeqjJOA3suhcH_CWpcU4sZT-Jkz9jRfVwcqscdW4Bcvjw6EAIwT5AGl3vfsaJn1cnS4-Jm4tZhmowenum27oAtU2EBx4_57KOq__teYMko-lAe6GTh1M_3-axtb-VIz3ZHdaF2IQXR3Zu3Y9ERb4I_XjhbVzG1jsWZ3P3x49F5Kwg_8-21aNoh5tp93I7NReRiQG74QZTbUw20ob-Ef3Aq2NcH4eFUlmTo-vVaTnbz5NIUQp1jt2XFkYlhpiHQS89xUfgkHKuyFFokjSZaubDl3D3PREd3Qh04rHp_QICrOKvsVEpjeycoZl-nu9_MxcGaZF3WPy05nMvIDW3saHhK7x9oQ6cf4QgmeR2RscQQzb4uorV2D_JpfsR9p4PX8GReJUvhQXTCqUCeca9Io66cZcA_t7OLcdst3djnj0LSmF-Ulj3k959PVOherBsAmUz6rfDNX5jZBHx0GVDPFncTajo8lK5bP9SwKrrZKkoQzcrkqDxWPDNIBcNaD2vaKHWeACE-wFK3zM6lm40?></g></svg>