<svg xmlns="http://www.w3.org/2000/svg" xmlns:xlink="http://www.w3.org/1999/xlink" contentStyleType="text/css" height="696px" preserveAspectRatio="none" style="width:1619px;height:696px;background:#FFFFFF;" version="1.1" viewBox="0 0 1619 696" width="1619px" zoomAndPan="magnify"><title>B&#7843;y b&#7843;ng c&#7911;a detection-db &#8212; Nh&#236;n t&#7915; g&#243;c nh&#236;n nh&#224; ph&#225;t tri&#7875;n</title><defs/><g><text fill="#000000" font-family="Sans" font-size="18" font-weight="bold" lengthAdjust="spacing" textLength="550.9226" x="527.2437" y="29.2419">B&#7843;y b&#7843;ng c&#7911;a detection-db &#8212; Nh&#236;n t&#7915; g&#243;c nh&#236;n nh&#224; ph&#225;t tri&#7875;n</text><!--cluster IN--><g id="cluster_IN"><rect fill="#F8F9FA" height="279" rx="2.5" ry="2.5" style="stroke:#495057;stroke-width:1.0;" width="202.95" x="110.54" y="237.0758"/><text fill="#000000" font-family="Sans" font-size="14" font-weight="bold" lengthAdjust="spacing" textLength="76.6637" x="173.6832" y="254.0418">NH&#7852;N V&#192;O</text></g><!--cluster SCORE--><g id="cluster_SCORE"><rect fill="#F8F9FA" height="279" rx="2.5" ry="2.5" style="stroke:#495057;stroke-width:1.0;" width="218.47" x="528.05" y="237.0758"/><text fill="#000000" font-family="Sans" font-size="14" font-weight="bold" lengthAdjust="spacing" textLength="82.9637" x="595.8032" y="254.0418">CH&#7844;M &#272;I&#7874;M</text></g><!--cluster FLOW--><g id="cluster_FLOW"><rect fill="#F8F9FA" height="240" rx="2.5" ry="2.5" style="stroke:#495057;stroke-width:1.0;" width="202" x="1031" y="237.0758"/><text fill="#000000" font-family="Sans" font-size="14" font-weight="bold" lengthAdjust="spacing" textLength="186.0033" x="1038.9984" y="254.0418">&#272;&#431;&#7900;NG &#272;I C&#7910;A C&#7842;NH B&#193;O</text></g><!--cluster PEOPLE--><g id="cluster_PEOPLE"><rect fill="#F8F9FA" height="167" rx="2.5" ry="2.5" style="stroke:#495057;stroke-width:1.0;" width="230.38" x="1383.03" y="237.0758"/><text fill="#000000" font-family="Sans" font-size="14" font-weight="bold" lengthAdjust="spacing" textLength="96.4876" x="1449.9762" y="254.0418">NG&#431;&#7900;I X&#7916; L&#221;</text></g><!--entity LA--><g id="elem_LA"><rect fill="#DAE8FC" height="77.2038" rx="2.5" ry="2.5" style="stroke:#495057;stroke-width:0.5;" width="145.3415" x="139.35" y="414.4758"/><text fill="#000000" font-family="Sans" font-size="14" lengthAdjust="spacing" textLength="98.4896" x="149.35" y="439.4418">login_attempts</text><text fill="#000000" font-family="Sans" font-size="14" lengthAdjust="spacing" textLength="123.3395" x="149.35" y="458.5097">M&#7895;i l&#7847;n &#273;&#259;ng nh&#7853;p</text><text fill="#000000" font-family="Sans" font-size="14" lengthAdjust="spacing" textLength="125.3415" x="149.35" y="477.5776">(event_id duy nh&#7845;t)</text></g><!--entity PO--><g id="elem_PO"><rect fill="#FFE6CC" height="77.2038" rx="2.5" ry="2.5" style="stroke:#495057;stroke-width:0.5;" width="154.9454" x="134.54" y="302.4758"/><text fill="#000000" font-family="Sans" font-size="14" lengthAdjust="spacing" textLength="49.2378" x="144.54" y="327.4418">policies</text><text fill="#000000" font-family="Sans" font-size="14" lengthAdjust="spacing" textLength="134.9454" x="144.54" y="346.5097">Ch&#237;nh s&#225;ch + quy t&#7855;c</text><text fill="#000000" font-family="Sans" font-size="14" lengthAdjust="spacing" textLength="87.9477" x="144.54" y="365.5776">(d&#7841;ng JSONB)</text></g><!--entity RA--><g id="elem_RA"><rect fill="#FFF2CC" height="77.2038" rx="2.5" ry="2.5" style="stroke:#495057;stroke-width:0.5;" width="170.4714" x="552.05" y="414.4758"/><text fill="#000000" font-family="Sans" font-size="14" lengthAdjust="spacing" textLength="113.7636" x="562.05" y="439.4418">risk_assessments</text><text fill="#000000" font-family="Sans" font-size="14" lengthAdjust="spacing" textLength="98.6716" x="562.05" y="458.5097">&#272;&#225;nh gi&#225; r&#7911;i ro</text><text fill="#000000" font-family="Sans" font-size="14" lengthAdjust="spacing" textLength="150.4714" x="562.05" y="477.5776">(1-1 v&#7899;i l&#7847;n &#273;&#259;ng nh&#7853;p)</text></g><!--entity DL--><g id="elem_DL"><rect fill="#FFF2CC" height="77.2038" rx="2.5" ry="2.5" style="stroke:#495057;stroke-width:0.5;" width="142.8775" x="565.84" y="302.4758"/><text fill="#000000" font-family="Sans" font-size="14" lengthAdjust="spacing" textLength="95.5776" x="575.84" y="327.4418">detection_logs</text><text fill="#000000" font-family="Sans" font-size="14" lengthAdjust="spacing" textLength="122.8775" x="575.84" y="346.5097">Nh&#7853;t k&#253; t&#7915;ng b&#432;&#7899;c</text><text fill="#000000" font-family="Sans" font-size="14" lengthAdjust="spacing" textLength="69.3417" x="575.84" y="365.5776">(giai &#273;o&#7841;n)</text></g><!--entity AL--><g id="elem_AL"><rect fill="#F8CECC" height="58.1358" rx="2.5" ry="2.5" style="stroke:#495057;stroke-width:0.5;" width="141.1695" x="1060.92" y="395.0058"/><text fill="#000000" font-family="Sans" font-size="14" lengthAdjust="spacing" textLength="36.9039" x="1070.92" y="419.9718">alerts</text><text fill="#000000" font-family="Sans" font-size="14" lengthAdjust="spacing" textLength="121.1695" x="1070.92" y="439.0397">C&#7843;nh b&#225;o cho SOC</text></g><!--entity AT--><g id="elem_AT"><rect fill="#F8CECC" height="58.1358" rx="2.5" ry="2.5" style="stroke:#495057;stroke-width:0.5;" width="152.7755" x="1055.11" y="302.0058"/><text fill="#000000" font-family="Sans" font-size="14" lengthAdjust="spacing" textLength="89.8376" x="1065.11" y="326.9718">alert_timeline</text><text fill="#000000" font-family="Sans" font-size="14" lengthAdjust="spacing" textLength="132.7755" x="1065.11" y="346.0397">D&#242;ng th&#7901;i gian x&#7917; l&#253;</text></g><!--entity SA--><g id="elem_SA"><rect fill="#CCE5FF" height="77.2038" rx="2.5" ry="2.5" style="stroke:#495057;stroke-width:0.5;" width="182.3854" x="1407.03" y="302.4758"/><text fill="#000000" font-family="Sans" font-size="14" lengthAdjust="spacing" textLength="81.6897" x="1417.03" y="327.4418">soc_analysts</text><text fill="#000000" font-family="Sans" font-size="14" lengthAdjust="spacing" textLength="120.0775" x="1417.03" y="346.5097">H&#7891; s&#417; chuy&#234;n vi&#234;n</text><text fill="#000000" font-family="Sans" font-size="14" lengthAdjust="spacing" textLength="162.3854" x="1417.03" y="365.5776">(g&#7855;n v&#7899;i users &#7903; core-db)</text></g><g id="elem_GMN17"><path d="M65.44,132.6658 L65.44,213.4899 L358.5939,213.4899 L358.5939,142.6658 L348.5939,132.6658 L65.44,132.6658 " fill="#FEFFDD" style="stroke:#181818;stroke-width:0.5;"/><path d="M348.5939,132.6658 L348.5939,142.6658 L358.5939,142.6658 L348.5939,132.6658 " fill="#FEFFDD" style="stroke:#181818;stroke-width:1.0;"/><text fill="#000000" font-family="Sans" font-size="13" font-weight="bold" lengthAdjust="spacing" textLength="194.8831" x="71.44" y="151.5629">Kho&#225; duy nh&#7845;t (idempotency):</text><text fill="#000000" font-family="Sans" font-size="13" lengthAdjust="spacing" textLength="215.7872" x="71.44" y="169.2689">`event_id UUID NOT NULL UNIQUE`</text><text fill="#000000" font-family="Sans" font-size="13" lengthAdjust="spacing" textLength="272.1539" x="71.44" y="186.9749">&#8594; nh&#7901; v&#7853;y Core App g&#7917;i l&#7841;i c&#249;ng m&#7897;t s&#7921; ki&#7879;n</text><text fill="#000000" font-family="Sans" font-size="13" lengthAdjust="spacing" textLength="142.4411" x="71.44" y="204.6809">nhi&#7873;u l&#7847;n v&#7851;n ch&#7881; t&#7841;o ra</text><text fill="#000000" font-family="Sans" font-size="13" font-weight="bold" lengthAdjust="spacing" textLength="26.442" x="217.2611" y="204.6809">m&#7897;t</text><text fill="#000000" font-family="Sans" font-size="13" lengthAdjust="spacing" textLength="91.6241" x="247.0832" y="204.6809">l&#7847;n &#273;&#259;ng nh&#7853;p.</text></g><g id="elem_GMN20"><path d="M418.59,149.5158 L418.59,212.6339 L855.9673,212.6339 L855.9673,159.5158 L845.9673,149.5158 L418.59,149.5158 " fill="#FEFFDD" style="stroke:#181818;stroke-width:0.5;"/><path d="M845.9673,149.5158 L845.9673,159.5158 L855.9673,159.5158 L845.9673,149.5158 " fill="#FEFFDD" style="stroke:#181818;stroke-width:1.0;"/><text fill="#000000" font-family="Sans" font-size="13" font-weight="bold" lengthAdjust="spacing" textLength="93.9251" x="424.59" y="168.4129">R&#224;ng bu&#7897;c 1-1:</text><text fill="#000000" font-family="Sans" font-size="13" lengthAdjust="spacing" textLength="416.3773" x="424.59" y="186.1189">`CONSTRAINT uq_risk_assessment_login UNIQUE (login_attempt_id)`</text><text fill="#000000" font-family="Sans" font-size="13" lengthAdjust="spacing" textLength="167.6597" x="424.59" y="203.8249">&#8594; m&#7895;i l&#7847;n &#273;&#259;ng nh&#7853;p ch&#7881; c&#243;</text><text fill="#000000" font-family="Sans" font-size="13" font-weight="bold" lengthAdjust="spacing" textLength="63.3231" x="595.6297" y="203.8249">&#273;&#250;ng m&#7897;t</text><text fill="#000000" font-family="Sans" font-size="13" lengthAdjust="spacing" textLength="120.4971" x="662.3328" y="203.8249">k&#7871;t qu&#7843; ch&#7845;m &#273;i&#7875;m.</text></g><g id="elem_GMN23"><path d="M471.88,51.5158 L471.88,114.6339 L802.6963,114.6339 L802.6963,61.5158 L792.6963,51.5158 L471.88,51.5158 " fill="#FEFFDD" style="stroke:#181818;stroke-width:0.5;"/><path d="M792.6963,51.5158 L792.6963,61.5158 L802.6963,61.5158 L792.6963,51.5158 " fill="#FEFFDD" style="stroke:#181818;stroke-width:1.0;"/><text fill="#000000" font-family="Sans" font-size="13" font-weight="bold" lengthAdjust="spacing" textLength="157.1702" x="477.88" y="70.4129">`stage` ch&#7881; nh&#7853;n 4 gi&#225; tr&#7883;</text><text fill="#000000" font-family="Sans" font-size="13" lengthAdjust="spacing" textLength="118.2091" x="638.4302" y="70.4129">(r&#224;ng bu&#7897;c CHECK):</text><text fill="#000000" font-family="Sans" font-size="13" lengthAdjust="spacing" textLength="309.8163" x="477.88" y="88.1189">`rule_evaluation` &#183; `ml_call` &#183; `scoring` &#183; `action_sent`</text><text fill="#000000" font-family="Sans" font-size="13" lengthAdjust="spacing" textLength="222.1688" x="477.88" y="105.8249">&#8594; nh&#7853;t k&#253; lu&#244;n &#273;&#7911; 4 m&#7889;c &#273;&#7875; truy v&#7871;t.</text></g><g id="elem_GMN26"><path d="M915.97,132.6658 L915.97,213.4899 L1347.0264,213.4899 L1347.0264,142.6658 L1337.0264,132.6658 L915.97,132.6658 " fill="#FEFFDD" style="stroke:#181818;stroke-width:0.5;"/><path d="M1337.0264,132.6658 L1337.0264,142.6658 L1347.0264,142.6658 L1337.0264,132.6658 " fill="#FEFFDD" style="stroke:#181818;stroke-width:1.0;"/><text fill="#000000" font-family="Sans" font-size="13" font-weight="bold" lengthAdjust="spacing" textLength="202.7481" x="921.97" y="151.5629">Xo&#225; theo d&#226;y chuy&#7873;n (cascade):</text><text fill="#000000" font-family="Sans" font-size="13" lengthAdjust="spacing" textLength="410.0564" x="921.97" y="169.2689">xo&#225; l&#7847;n &#273;&#259;ng nh&#7853;p &#8594; xo&#225; lu&#244;n c&#7843;nh b&#225;o &#8594; xo&#225; lu&#244;n d&#242;ng th&#7901;i gian.</text><text fill="#000000" font-family="Sans" font-size="13" lengthAdjust="spacing" textLength="355.8103" x="921.97" y="186.9749">Ng&#432;&#7907;c l&#7841;i, xo&#225; ch&#237;nh s&#225;ch th&#236; c&#7897;t `policy_id` ch&#7881; b&#7883; &#273;&#7863;t NULL</text><text fill="#000000" font-family="Sans" font-size="13" lengthAdjust="spacing" textLength="137.1891" x="921.97" y="204.6809">(kh&#244;ng m&#7845;t c&#7843;nh b&#225;o).</text></g><!--link IN to SCORE--><g id="link_IN_SCORE"><path d="M314.913,267.0758 C315.6205,267.0758 316.3303,267.0758 317.0423,267.0758 C318.4663,267.0758 319.8992,267.0758 321.3406,267.0758 C324.2233,267.0758 327.1398,267.0758 330.0872,267.0758 C335.982,267.0758 342,267.0758 348.1165,267.0758 C372.5827,267.0758 398.6259,267.0758 424.6688,267.0758 C450.7116,267.0758 476.754,267.0758 501.2186,267.0758 C507.3348,267.0758 513.3523,267.0758 519.2466,267.0758 C522.1937,267.0758 519.1101,267.0758 521.9925,267.0758 " fill="none" id="IN-to-SCORE" style="stroke:#343A40;stroke-width:1.2;"/><polygon fill="#343A40" points="527.9925,267.0758,518.9925,263.0758,522.9925,267.0758,518.9925,271.0758,527.9925,267.0758" style="stroke:#343A40;stroke-width:1.2;"/></g><!--link SCORE to FLOW--><g id="link_SCORE_FLOW"><path d="M747.0347,267.0758 C747.8355,267.0758 748.6392,267.0758 749.4457,267.0758 C751.0587,267.0758 752.6829,267.0758 754.3179,267.0758 C767.3974,267.0758 781.1647,267.0758 795.3905,267.0758 C823.842,267.0758 854.1275,267.0758 884.4125,267.0758 C914.6975,267.0758 944.982,267.0758 973.4317,267.0758 C987.6566,267.0758 1001.4227,267.0758 1014.5008,267.0758 C1017.7704,267.0758 1020.9969,267.0758 1024.1768,267.0758 C1025.7668,267.0758 1027.3451,267.0758 1028.9114,267.0758 C1029.3029,267.0758 1023.6937,267.0758 1024.0838,267.0758 " fill="none" id="SCORE-to-FLOW" style="stroke:#343A40;stroke-width:1.2;"/><polygon fill="#343A40" points="1030.0838,267.0758,1021.0838,263.0758,1025.0838,267.0758,1021.0838,271.0758,1030.0838,267.0758" style="stroke:#343A40;stroke-width:1.2;"/></g><!--link FLOW to PEOPLE--><g id="link_FLOW_PEOPLE"><path d="M1233.3787,255.1908 C1238.458,255.0253 1243.6434,254.8764 1248.9138,254.744 C1269.9954,254.2146 1292.4359,253.9502 1314.8763,253.9508 C1337.3166,253.9515 1359.7566,254.2171 1380.8373,254.7477 C1381.4961,254.7643 1376.1555,254.6248 1376.8116,254.6419 " fill="none" id="FLOW-to-PEOPLE" style="stroke:#343A40;stroke-width:1.2;"/><polygon fill="#343A40" points="1382.8096,254.7982,1373.9168,250.5651,1377.8113,254.6679,1373.7084,258.5624,1382.8096,254.7982" style="stroke:#343A40;stroke-width:1.2;"/></g><!--link PEOPLE to FLOW--><g id="link_PEOPLE_FLOW"><path d="M1382.8096,279.3535 C1382.1535,279.3706 1381.4961,279.3874 1380.8373,279.404 C1359.7566,279.9346 1337.3166,280.2002 1314.8763,280.2008 C1292.4359,280.2015 1269.9954,279.9371 1248.9138,279.4077 C1243.6434,279.2753 1244.4548,279.3218 1239.3755,279.1563 " fill="none" id="PEOPLE-to-FLOW" style="stroke:#343A40;stroke-width:1.2;"/><polygon fill="#343A40" points="1233.3787,278.9609,1242.2436,283.2519,1238.376,279.1237,1242.5041,275.2561,1233.3787,278.9609" style="stroke:#343A40;stroke-width:1.2;"/></g><!--link LA to GMN17--><g id="link_LA_GMN17"><path d="M139.15,443.8558 C100.41,434.6658 56.53,416.2858 35.44,379.5758 C6,328.3158 6,297.8358 35.44,246.5758 C42.97,233.4758 53.39,222.7058 65.46,213.8658 " fill="none" id="LA-GMN17" style="stroke:#343A40;stroke-width:1.2;stroke-dasharray:7.0,7.0;"/></g><!--link RA to GMN20--><g id="link_RA_GMN20"><path d="M551.58,455.2658 C492.96,451.4458 420.32,434.8158 388.59,379.5758 C359.15,328.3158 359.15,297.8358 388.59,246.5758 C396.38,233.0258 406.68,221.9558 418.67,212.9458 " fill="none" id="RA-GMN20" style="stroke:#343A40;stroke-width:1.2;stroke-dasharray:7.0,7.0;"/></g><!--link DL to GMN23--><g id="link_DL_GMN23"><path d="M565.35,348.2058 C504.67,349.6258 422.46,339.5258 388.59,280.5758 C359.6,230.0858 359.6,200.0658 388.59,149.5758 C406.4,118.5758 437.37,100.4558 471.52,90.1858 " fill="none" id="DL-GMN23" style="stroke:#343A40;stroke-width:1.2;stroke-dasharray:7.0,7.0;"/></g><!--link AL to GMN26--><g id="link_AL_GMN26"><path d="M1060.54,429.8758 C1000.67,430.2658 919.52,418.9858 885.97,360.5758 C860.74,316.6358 860.74,290.5158 885.97,246.5758 C893.67,233.1658 903.81,222.0458 915.57,212.8358 " fill="none" id="AL-GMN26" style="stroke:#343A40;stroke-width:1.2;stroke-dasharray:7.0,7.0;"/></g><rect fill="none" height="143.4754" id="_legend" rx="7.5" ry="7.5" style="stroke:#000000;stroke-width:1.0;" width="490.4641" x="557.473" y="533.0758"/><text fill="#000000" font-family="Sans" font-size="14" font-weight="bold" lengthAdjust="spacing" textLength="306.1368" x="562.473" y="553.0418">V&#236; sao t&#225;ch detection-db ri&#234;ng kh&#7887;i core-db?</text><text fill="#000000" font-family="Sans" font-size="14" lengthAdjust="spacing" textLength="398.8584" x="562.473" y="572.1097">1. Detection c&#243; v&#242;ng &#273;&#7901;i d&#7919; li&#7879;u kh&#225;c: d&#7919; li&#7879;u sinh ra li&#234;n t&#7909;c,</text><text fill="#000000" font-family="Sans" font-size="14" lengthAdjust="spacing" textLength="206.5132" x="573.3929" y="591.1776">t&#259;ng nhanh, c&#243; th&#7875; l&#432;u l&#226;u h&#417;n.</text><text fill="#000000" font-family="Sans" font-size="14" lengthAdjust="spacing" textLength="422.8404" x="562.473" y="610.2455">2. Quy&#7873;n truy c&#7853;p kh&#225;c nhau: chuy&#234;n vi&#234;n SOC v&#224;o detection-db,</text><text fill="#000000" font-family="Sans" font-size="14" lengthAdjust="spacing" textLength="469.4462" x="573.3929" y="629.3134">kh&#244;ng v&#224;o &#273;&#432;&#7907;c core-db (ch&#7913;a th&#244;ng tin nh&#7841;y c&#7843;m nh&#432; b&#259;m m&#7853;t kh&#7849;u).</text><text fill="#000000" font-family="Sans" font-size="14" lengthAdjust="spacing" textLength="480.4641" x="562.473" y="648.3814">3. Nh&#243;m ph&#7909; tr&#225;ch kh&#225;c nhau (TASK_ASSIGNMENT.md): Tu&#7845;n Anh s&#7903; h&#7919;u</text><text fill="#000000" font-family="Sans" font-size="14" lengthAdjust="spacing" textLength="430.8328" x="573.3929" y="667.4493">detection_soc, Sony s&#7903; h&#7919;u core_auth &#8594; d&#7877; chia vi&#7879;c, d&#7877; m&#7903; r&#7897;ng.</text><!--SRC=[VLPHRzjK57xthpXYBsbeetNheEi3o7NJDInrjYOTUvYKtDYkVHNxEhElkmM4j541GZom0XAQO6BPADFOgWw6D15hGi9H_uVtIpZtscsTRAmFLg_llUTyttU-SvomHrcV1CI3BZ5wTk17pDHyrm_WrAhyKyBZ4w53JFy6PJPi4JUq2ZkcjKKYbw_wZEl4iw19M5ZO3Yo34sQx5dog02o_bcXnzVogAdRymBI2_Et2-NEdpxslV5Q8emQ1VoFVFhjmLbquFRtPSgZHOrOOmdpbJ66JK-vQ0bwJVcB1_AAYo3Umd8uU3g2BJsHbfF4ZWbmumgK-cpExyEhM3w0xoLC6F8sVW9qyDu39DJxlGzz9XXnuGDDuXocAQstXoeU0sWu7amPP84Kv4U0TVIqTFTNXIdAhyGwG46gw5ALmmlLjojg4Sylhy_0QMq_Z7ocuwUWHW_7kU0UHCYSTxVUliPArRJ7UfYQOqK2-tUCpCcnTXLChQdLnLPiCtlTTQb0BmsfEiiyS29EXuS2xS1q3y7HqO61KCnqDCSj7pOQ-d8Mxr11-gBwdQLYG8XqDwVow3kCxjJJ-V5sURMgDZUeqgO26lJO9GooDXv0n__XECiJyDas64A3o508VSy_FpSDs6l_qHiOPc0rLclECDiNjk79jb10pwE8EXrxoKbOFetGFds5eGT6cX69iNp3DegxKZwDEKXpVEJn8uv_r2u8bQ6dycuhFqGDz3PQJsraLL-kDZwSf4zSA155DkCk1RZBqmN1yQ3OqUKSL2HUrwZGDUQ_DgMUvb5dNs4ho9qBdJXhVeoWNON0pZVV1JLvcOLh7OIPnwnSaxXfSJUEdK4_kPPMiDYxLNojFw1jjmeWx20NYjJJ-7iB38SAD1idl3BOfFeLgQ12MboSAhI24DFu533-mi5ao6PjO74shdiF9WN3GtNDp7sIMK39ZYBMGIv6QYLK6IScH7UyhpESMT7tEVG_yBRGqOYwNBpe-EkR4xr2Y9dOAdcN6O6QfNCPJdUE-sDoihO3UQ86-MQ_3fbwxl5dju8bNNtudxiVtaCreVm0QSW2rtmSRjPNU6r8mahzHUI-Dxt88q_WFw66ZVyNmEdFmlzjHxb4CyOIXM6dyjUWXh7D04AcyM2w_oSWLnM8c28AlqTp8Q6uazuLX8unX03P5JanhwCtMXbhJMn1TRqzrLLkEZfmbb2O62OenSqJS-x-9adCmakU8OBoRZ8xe8ujUElg7uvX0DujZepqFxuh1vxs5p4fTakc4dDXM9mylSp5Oo7gVO_D_W_5BGP6njbRLBiui2Sf1v5fjQvku4H7DtO5_Nq37Szi6STri4Q83yREKBKWs0aBKer3eeq7WHibVWZGE70I0t7ODkTf176YfRK7oBNpKZCzLOK7kM3wOoOE1R1Eq0uEIGKA3c5PkmvlYs9ja5g2oJGd7A4o8gIrpklah65UtnHnxQ6GsdStE6yLvpl4R9RvdQDoE7Fa3hF-H_bqKN90UlU2oBJ1YgUTWDb5iqL45F3D5CLpB5ejC3gLSle99Gk83bpadFfo1c1Wsz33Xj_HeGdo8ginNOENee3JQjcGeQe0CpJG-05TqMOHtCUpInAkG8YpiBLT45qDzpvX5zC1pSGbpPcLG8TWEk8VFi4MJ1n4uXqDKxam5BkULajKsP35a7d4vMfeSU69I8xpx_WGrcJ2NIswET_Dgv2pH1PZzCH5548SuPRBkGvdmeOUBmsVG7UzuGcxXIzny7A7IPolYnyPp3tzN83N4A7KzmGUbbjgys5QRpTe5VRsgjogUERC4BUp9FGQggBwOntZv818eJpw8EDzdeUcpGU64nDic4NUawL3dBv0_9KWUnSRpyeqdpcEBtcMsj4Bc0UK_]--></g></svg>